<svg xmlns="http://www.w3.org/2000/svg" viewBox="0 0 64 64" fill="none" >
  <defs>
    <linearGradient id="v" x1="14" y1="10" x2="49" y2="55" gradientUnits="userSpaceOnUse">
      <stop stop-color="#FF9A6A"/>
      <stop offset="0.48" stop-color="#FF6F4D"/>
      <stop offset="1" stop-color="#FF4F2E"/>
    </linearGradient>
    <linearGradient id="bg" x1="6" y1="4" x2="58" y2="60" gradientUnits="userSpaceOnUse">
      <stop stop-color="#172033"/>
      <stop offset="1" stop-color="#0A0E19"/>
    </linearGradient>
    <filter id="glow" x="-10" y="-10" width="84" height="84" filterUnits="userSpaceOnUse">
      <feGaussianBlur stdDeviation="1.2" result="b"/>
      <feMerge>
        <feMergeNode in="b"/>
        <feMergeNode in="SourceGraphic"/>
      </feMerge>
    </filter>
  </defs>
  <rect x="2" y="2" width="60" height="60" rx="17" fill="url(#bg)"/>
  <rect x="2.75" y="2.75" width="58.5" height="58.5" rx="16.25" stroke="#FFFFFF" stroke-opacity=".10" stroke-width="1.5"/>
  <g filter="url(#glow)">
    <path d="M14.7 17.2c-.85-1.5.25-3.35 1.97-3.35h8.1c.86 0 1.65.49 2.02 1.27l7.15 15.05c.48 1.02 1.92 1.02 2.4 0l7.15-15.05a2.25 2.25 0 0 1 2.03-1.27h8.08c1.73 0 2.82 1.85 1.97 3.35L38.1 48.05c-.87 1.54-3.09 1.54-3.96 0L14.7 17.2Z" fill="url(#v)"/>
    <path d="M23.4 16.7 35.2 42.4c.34.74 1.39.74 1.73 0l12-25.7" stroke="#FFD5C7" stroke-opacity=".32" stroke-width="2.2" stroke-linecap="round"/>
    <path d="M32 14v9" stroke="#3E455D" stroke-width="3" stroke-linecap="round"/>
    <path d="M32 21.5 25.8 27.5M32 21.5l6.2 6" stroke="#3E455D" stroke-width="3" stroke-linecap="round"/>
    <circle cx="32" cy="13.4" r="4.2" fill="#FF7858"/>
    <circle cx="25.3" cy="28" r="3" fill="#3E455D"/>
    <circle cx="38.7" cy="28" r="3" fill="#3E455D"/>
    <circle cx="32" cy="24.2" r="3" fill="#3E455D"/>
  </g>
</svg>
