<svg xmlns="http://www.w3.org/2000/svg" viewBox="0 0 64 64" fill="none">
  <defs>
    <linearGradient id="bg" x1="6" y1="5" x2="58" y2="60" gradientUnits="userSpaceOnUse">
      <stop stop-color="#151C2F"/>
      <stop offset="1" stop-color="#080C16"/>
    </linearGradient>
    <linearGradient id="v" x1="14" y1="12" x2="50" y2="52" gradientUnits="userSpaceOnUse">
      <stop stop-color="#FF9C6D"/>
      <stop offset="0.52" stop-color="#FF7250"/>
      <stop offset="1" stop-color="#FF512F"/>
    </linearGradient>
  </defs>
  <rect x="2" y="2" width="60" height="60" rx="17" fill="url(#bg)"/>
  <path d="M13.8 17.2c-.74-1.34.23-2.98 1.76-2.98h7.2c.76 0 1.46.43 1.8 1.11L34.2 35c.55 1.13 2.17 1.13 2.72 0l9.64-19.67c.34-.68 1.04-1.11 1.8-1.11h7.08c1.54 0 2.5 1.65 1.76 2.98L39.13 49.62c-.88 1.58-3.14 1.58-4.02 0L13.8 17.2Z" fill="url(#v)"/>
  <path d="M32 13.8v10.3" stroke="#2F354A" stroke-width="3.1" stroke-linecap="round"/>
  <path d="M32 22.7 25.4 28.7M32 22.7l6.6 6" stroke="#2F354A" stroke-width="3.1" stroke-linecap="round"/>
  <circle cx="32" cy="12.8" r="4.35" fill="#FF7A58"/>
  <circle cx="25" cy="29.1" r="3.05" fill="#2F354A"/>
  <circle cx="39" cy="29.1" r="3.05" fill="#2F354A"/>
  <circle cx="32" cy="25.4" r="3.05" fill="#2F354A"/>
</svg>
